HIERARCHY
ROOT Hips
{
	OFFSET -3.958830 18.904000 13.208200
	CHANNELS 6 Xposition Yposition Zposition Zrotation Yrotation Xrotation 
	JOINT LHipJoint
	{
		OFFSET 0.000000 0.000000 0.000000
		CHANNELS 3 Zrotation Yrotation Xrotation
		JOINT LeftUpLeg
		{
			OFFSET 1.800000 -1.400000 0.085000
			CHANNELS 3 Zrotation Yrotation Xrotation
			JOINT LeftLeg
			{
				OFFSET 2.215000 -6.000000 0.000000
				CHANNELS 3 Zrotation Yrotation Xrotation
				JOINT LeftFoot
				{
					OFFSET 2.500000 -6.900000 0.000000
					CHANNELS 3 Zrotation Yrotation Xrotation
					JOINT LeftToeBase
					{
						OFFSET 0.200000 -0.500000 1.950000
						CHANNELS 3 Zrotation Yrotation Xrotation
						End Site
						{
							OFFSET 0.000000 0.000000 0.000000
						}
					}
				}
			}
		}
	}
	JOINT RHipJoint
	{
		OFFSET 0.000000 0.000000 0.000000
		CHANNELS 3 Zrotation Yrotation Xrotation
		JOINT RightUpLeg
		{
			OFFSET -1.800000 -1.400000 0.085000
			CHANNELS 3 Zrotation Yrotation Xrotation
			JOINT RightLeg
			{
				OFFSET -2.215000 -6.000000 0.000000
				CHANNELS 3 Zrotation Yrotation Xrotation
				JOINT RightFoot
				{
					OFFSET -2.500000 -6.900000 0.000000
					CHANNELS 3 Zrotation Yrotation Xrotation
					JOINT RightToeBase
					{
						OFFSET -0.200000 -0.500000 1.950000
						CHANNELS 3 Zrotation Yrotation Xrotation
						End Site
						{
							OFFSET 0.000000 0.000000 0.000000
						}
					}
				}
			}
		}
	}
	JOINT LowerBack
	{
		OFFSET 0.000000 0.000000 0.000000
		CHANNELS 3 Zrotation Yrotation Xrotation
		JOINT Spine
		{
			OFFSET -0.087000 1.940000 -0.288900
			CHANNELS 3 Zrotation Yrotation Xrotation
			JOINT Spine1
			{
				OFFSET 0.000000 1.950000 0.060000
				CHANNELS 3 Zrotation Yrotation Xrotation
				JOINT Neck
				{
					OFFSET 0.000000 0.000000 0.000000
					CHANNELS 3 Zrotation Yrotation Xrotation
					JOINT Neck1
					{
						OFFSET 0.000000 1.600000 0.340000
						CHANNELS 3 Zrotation Yrotation Xrotation
						JOINT Head
						{
							OFFSET 0.000000 1.667000 -0.240000
							CHANNELS 3 Zrotation Yrotation Xrotation
							End Site
							{
								OFFSET 0.000000 0.000000 0.000000
							}
						}
					}
				}
				JOINT LeftShoulder
				{
					OFFSET 0.000000 0.000000 0.000000
					CHANNELS 3 Zrotation Yrotation Xrotation
					JOINT LeftArm
					{
						OFFSET 2.700000 1.550000 -0.730000
						CHANNELS 3 Zrotation Yrotation Xrotation
						JOINT LeftForeArm
						{
							OFFSET 5.450000 0.000000 0.000000
							CHANNELS 3 Zrotation Yrotation Xrotation
							JOINT LeftHand
							{
								OFFSET 3.450000 0.000000 0.000000
								CHANNELS 3 Zrotation Yrotation Xrotation
								JOINT LeftHandIndex1
								{
									OFFSET 0.750000 0.000000 0.000000
									CHANNELS 3 Zrotation Yrotation Xrotation
									End Site
									{
										OFFSET 0.000000 0.000000 0.000000
									}
								}
							}
						}
					}
				}
				JOINT RightShoulder
				{
					OFFSET 0.000000 0.000000 0.000000
					CHANNELS 3 Zrotation Yrotation Xrotation
					JOINT RightArm
					{
						OFFSET -2.700000 1.550000 -0.730000
						CHANNELS 3 Zrotation Yrotation Xrotation
						JOINT RightForeArm
						{
							OFFSET -5.450000 0.000000 0.000000
							CHANNELS 3 Zrotation Yrotation Xrotation
							JOINT RightHand
							{
								OFFSET -3.450000 0.000000 0.000000
								CHANNELS 3 Zrotation Yrotation Xrotation
								JOINT RightHandIndex1
								{
									OFFSET -0.750000 0.000000 0.000000
									CHANNELS 3 Zrotation Yrotation Xrotation
									End Site
									{
										OFFSET 0.000000 0.000000 0.000000
									}
								}
							}
						}
					}
				}
			}
		}
	}
}
MOTION
Frames: 11
Frame Time: 0.016667
1.361910 17.821500 -1.138270 -2.851064 -18.880519 9.005536 -15.043479 13.199953 2.746366 5.463584 -0.980461 -10.705498 -3.715955 3.321877 4.977844 -1.439369 4.870973 3.617959 0.042840 -0.512460 -0.475090 18.403054 -10.926086 2.845592 -2.930255 0.459698 -5.800858 10.195112 -6.616294 9.467776 -0.688564 -4.803994 2.821466 0.005280 1.782490 1.140990 -3.740229 -1.415097 -6.934706 9.235171 1.714975 5.055784 -4.330591 2.183787 4.350685 1.572546 -3.628578 -9.026601 -6.292633 8.755570 23.127689 -4.021190 3.823990 -11.989950 -13.387722 -6.846087 3.366367 -0.156732 0.833186 2.126897 9.233695 -5.571737 -2.177829 -4.795920 2.392812 1.112310 0.976740 -0.111720 0.800570 10.622548 9.991477 4.858008 7.840149 9.428840 -3.648771 -13.154627 23.585708 -1.689201 1.317752 -1.219776 -0.784730 0.831300 0.544880 0.118940 
1.364910 17.796340 -1.138660 -2.961888 -18.991897 9.631129 -15.044596 13.117077 2.687460 6.550724 -1.009062 -11.111231 -3.995099 3.374272 4.825524 -1.516203 4.993331 3.595264 0.047350 -0.505260 -0.486120 18.428104 -10.914552 2.797663 -2.735885 0.565137 -6.335855 10.004975 -6.550788 9.689953 -0.638426 -4.840428 2.816610 0.067150 1.862420 1.131020 -3.797038 -1.293929 -6.783018 9.333053 1.793728 3.783446 -4.381798 2.129335 5.372115 1.388064 -3.578740 -8.712092 -5.991283 9.013672 21.061976 -4.305510 3.774010 -10.844240 -13.152180 -6.791846 3.311011 0.519888 0.546133 2.372057 8.891105 -5.243773 -2.221345 -4.877189 2.389105 1.066470 1.055000 -0.187350 0.812870 10.805239 9.697272 4.541901 7.180872 9.771624 -3.421717 -13.288969 23.228199 -1.856812 1.265555 -1.269710 -0.838680 0.876710 0.561680 0.113200 
1.385680 17.770970 -1.140860 -3.284742 -19.109859 10.380926 -15.016517 13.039099 2.593361 8.168972 -1.051719 -11.751233 -3.803324 3.375222 5.146909 -1.597481 5.087799 3.551994 0.118110 -0.416570 -0.481400 18.470200 -10.924846 2.778511 -2.916711 0.741738 -6.945600 10.597245 -6.616324 9.855106 -0.626004 -4.953359 2.746448 0.172170 1.922510 1.166220 -3.920727 -1.110763 -6.639663 10.216475 1.573202 2.623276 -4.823136 1.870911 6.032270 1.079082 -3.829366 -8.263363 -6.219753 9.737796 18.876497 -4.119520 3.619250 -10.011850 -12.383174 -6.282055 3.119539 0.609112 -0.243529 2.705467 8.512109 -4.388216 -2.290931 -4.963383 2.457053 1.000790 1.127410 -0.240620 0.844450 10.656560 9.164615 3.942973 6.078234 11.457906 -2.674058 -12.858447 20.995153 -1.894232 1.248463 -1.365858 -0.842020 0.884020 0.557930 0.126760 
1.410000 17.757100 -1.142070 -3.526089 -19.679264 10.497258 -14.977462 13.054598 2.541968 10.054433 -0.946181 -11.907635 -4.014895 3.617178 6.102523 -1.570837 5.174962 3.477830 0.185270 -0.349920 -0.433780 18.488210 -10.965042 2.797484 -3.305217 0.832355 -7.036909 11.157049 -6.752201 10.079485 -0.661150 -5.014817 2.693966 0.194930 1.866100 1.198320 -3.994590 -1.017242 -6.647842 11.041228 1.441185 2.784022 -5.578106 1.877515 5.664118 1.143177 -3.982528 -8.225695 -6.453878 10.005801 18.845412 -4.086660 3.822800 -10.275360 -11.985387 -6.052745 2.904329 1.276372 -1.012833 2.746733 7.892673 -3.203544 -2.280861 -4.948588 2.518959 0.998710 1.101750 -0.208790 0.851420 10.065624 9.007589 3.973235 6.284634 11.738021 -2.414672 -12.615747 20.620528 -1.862521 1.271668 -1.419351 -0.792030 0.822320 0.517530 0.126130 
1.437120 17.747160 -1.147360 -3.399093 -20.114355 10.546280 -14.972834 13.080892 2.510838 11.260351 -0.853765 -11.887808 -4.054446 3.768234 6.645543 -1.404452 5.137581 3.446629 0.244580 -0.240580 -0.440680 18.477747 -10.973905 2.787591 -4.010850 0.976468 -7.441164 12.039579 -6.987024 10.772078 -0.670740 -5.142917 2.635788 0.201020 1.803430 1.246360 -3.981687 -1.015235 -6.638358 10.861041 1.408629 2.512356 -5.776997 1.815180 6.000439 1.283097 -3.864817 -8.651287 -6.257375 10.329942 18.713997 -3.817410 4.355810 -8.357830 -11.716721 -6.604598 3.283252 1.394981 -0.944573 2.547721 8.397649 -2.380720 -2.138319 -4.906226 2.716211 0.876190 1.099020 -0.189340 0.886320 9.597569 9.496232 4.362826 6.562869 11.344191 -2.222844 -13.090030 20.195503 -2.038779 1.356635 -1.565449 -0.656990 0.666340 0.427940 0.191220 
1.461200 17.756740 -1.159720 -3.787017 -20.786919 10.491958 -14.956282 13.142277 2.542267 12.907299 -0.687914 -11.670724 -4.621738 4.073246 7.121804 -1.292830 5.186107 3.382241 0.313340 -0.130050 -0.415730 18.469863 -10.973687 2.764603 -4.023363 1.317287 -8.383768 12.307699 -7.274880 12.785631 -0.711019 -5.147121 2.629045 0.209210 1.702490 1.244810 -3.982657 -1.099679 -6.701560 11.422443 1.275011 3.256242 -5.896723 1.831907 5.573707 1.245965 -4.310913 -8.879819 -7.082560 10.087953 19.282544 -3.529320 4.200090 -9.497420 -12.017459 -6.829921 3.238062 1.649732 -1.810395 2.321603 8.345018 -0.561993 -2.043490 -4.810651 2.752820 0.887680 1.021970 -0.104810 0.918240 9.933459 10.003713 4.783783 6.550772 9.360320 -2.903336 -14.162027 23.128100 -2.290869 1.363407 -1.599364 -0.580150 0.607240 0.340850 0.223980 
1.483260 17.769600 -1.168260 -4.136753 -21.168260 10.681136 -14.953828 13.150012 2.555706 14.030045 -0.632178 -11.330746 -4.775240 4.189352 7.038428 -1.265250 5.314183 3.346957 0.303690 -0.130580 -0.447240 18.464817 -10.934738 2.756590 -4.273570 1.781491 -9.657373 13.124029 -7.621080 14.289703 -0.708717 -5.224573 2.604395 0.212130 1.736350 1.253490 -3.984790 -1.145691 -6.725628 11.709658 1.027803 3.519778 -5.786643 1.619396 5.289103 1.071848 -4.562055 -8.841453 -7.522456 10.305905 18.988908 -3.456960 4.135490 -9.241570 -12.242365 -6.767318 3.223638 1.520164 -1.614330 2.357205 8.302819 -0.975880 -2.042169 -4.816372 2.754154 0.874950 1.043060 -0.112530 0.937940 10.497239 10.070365 4.737719 6.091940 8.863377 -3.063051 -14.222570 23.995208 -2.330476 1.341599 -1.604150 -0.582100 0.622520 0.345330 0.243200 
1.519460 17.781830 -1.177280 -4.246380 -21.762193 10.863635 -14.943200 13.179258 2.538142 14.571994 -0.604810 -11.416151 -4.903633 4.377793 7.850180 -1.244740 5.405829 3.296278 0.291520 -0.129860 -0.491810 18.460732 -10.915472 2.758567 -5.172594 2.614045 -11.921505 14.191876 -8.272900 17.100448 -0.727507 -5.411440 2.504046 0.206330 1.761060 1.297500 -4.000209 -1.164232 -6.722637 11.957311 0.783938 3.801972 -6.270954 1.568928 5.351636 1.081117 -4.636780 -8.960074 -7.652934 10.927379 18.416976 -3.247110 4.437850 -9.301180 -12.274077 -6.912458 3.390090 1.669777 -0.871784 2.424607 8.159283 -1.888834 -2.058124 -4.826563 2.803315 0.857670 1.062950 -0.105720 0.947730 10.524613 10.176313 4.776766 7.008707 8.808473 -3.182908 -14.624748 24.066403 -2.446323 1.326566 -1.616175 -0.555370 0.607710 0.372280 0.267660 
1.554500 17.778570 -1.178370 -3.966120 -22.617880 11.135574 -14.961209 13.177457 2.455244 14.209703 -0.660121 -11.275411 -4.577979 4.410288 8.583280 -1.280413 5.464657 3.287217 0.280790 -0.132610 -0.494480 18.439144 -10.849362 2.819321 -7.512272 3.663709 -14.957873 16.536917 -9.418205 20.183716 -0.750142 -5.865410 2.304757 0.238790 1.817390 1.327290 -3.960036 -1.153137 -6.677216 11.263470 0.829391 3.461304 -5.914793 1.556155 5.720949 1.080787 -4.397079 -8.922908 -7.174233 11.577296 17.049277 -4.106910 5.125490 -8.406600 -11.738198 -6.714556 3.519479 -0.077233 -1.106832 2.550589 9.114991 -1.656876 -2.087549 -4.947459 2.805037 0.793650 1.143910 -0.151280 0.937080 10.106957 9.868163 4.532991 8.061748 9.762249 -2.845396 -14.944481 22.618288 -2.602592 1.305265 -1.653307 -0.563360 0.616800 0.401840 0.262340 
1.584950 17.756100 -1.184620 -3.280091 -23.243527 11.424713 -15.002115 13.082731 2.387290 13.622999 -0.783827 -11.392179 -5.065242 4.569293 9.209820 -1.343747 5.566421 3.278642 0.322940 -0.089830 -0.457930 18.418113 -10.679233 2.961661 -10.768211 4.703479 -18.628449 19.413259 -10.904782 23.315562 -0.815371 -6.511115 2.029623 0.317710 1.880070 1.328170 -3.906033 -1.159546 -6.674382 9.897364 0.946565 2.952922 -5.258224 1.638656 6.200756 0.823658 -4.089945 -8.984055 -6.554772 11.624892 15.413608 -4.196530 4.796310 -7.658770 -10.782754 -6.645563 3.626837 -1.860864 -1.982241 2.795942 9.220687 -0.488108 -2.128687 -5.050842 2.783446 0.745630 1.208460 -0.205230 0.953900 9.812022 9.682386 4.499923 9.142664 10.162649 -2.390321 -15.048406 20.502794 -2.758028 1.296102 -1.714303 -0.599670 0.659580 0.391130 0.257540 
1.625670 17.715500 -1.186700 -2.837558 -24.076500 11.736526 -15.028452 12.937994 2.292318 13.184562 -0.836995 -11.435309 -5.604785 4.768229 9.944990 -1.379745 5.599403 3.247990 0.406930 0.028490 -0.436890 18.430642 -10.448490 3.211322 -14.331236 5.545305 -22.170732 22.606425 -12.522038 25.710571 -0.928291 -7.231916 1.735863 0.409170 1.880040 1.324420 -3.933594 -1.145637 -6.728336 9.477183 0.912188 2.612401 -5.174772 1.724865 6.491930 0.637881 -4.181339 -8.972533 -6.687474 12.119711 14.324437 -3.692360 4.581000 -7.503430 -10.306052 -6.530272 3.753814 -3.310889 -2.167039 2.915447 9.773834 0.404573 -2.100725 -5.057595 2.839833 0.710290 1.222420 -0.221770 0.983630 9.780811 9.689849 4.332309 9.205331 10.302823 -2.238468 -15.000237 21.216153 -2.960017 1.266327 -1.793885 -0.590090 0.652740 0.348090 0.273200 
